<svg xmlns="http://www.w3.org/2000/svg" width="20" height="11" viewBox="0 0 20 11">
    <path fill="#4E7DB2" fill-rule="evenodd" d="M19.487.754c.087-.41-.105-.64-.558-.64h-2.283c-.523 0-.715.214-.872.525 0 0-1.234 2.474-2.736 4.033-.482.504-.728.656-.994.656-.214 0-.313-.168-.313-.623V.72c0-.557-.07-.721-.558-.721h-3.66c-.28 0-.454.153-.454.36 0 .525.854.644.854 2.066v2.935c0 .59-.035.82-.33.82-.785 0-2.65-2.542-3.696-5.427C3.677.164 3.451 0 2.859 0H.575C.245 0 0 .213 0 .524c0 .574.715 3.23 3.52 6.788C5.404 9.705 7.879 11 10.11 11c1.36 0 1.69-.213 1.69-.754V8.41c0-.46.192-.656.47-.656.315 0 .868.095 2.162 1.295C15.966 10.426 16.071 11 16.907 11h2.563c.261 0 .505-.115.505-.525 0-.54-.75-1.508-1.9-2.655-.47-.59-1.237-1.23-1.481-1.525-.349-.344-.244-.541 0-.902 0 0 2.631-3.491 2.893-4.639z"/>
</svg>
