<svg xmlns="http://www.w3.org/2000/svg" xmlns:xlink="http://www.w3.org/1999/xlink" width="18" height="18" viewBox="0 0 18 18">
    <defs>
        <path id="a" d="M0 17.424V0h17.135v17.424z"/>
    </defs>
    <g fill="none" fill-rule="evenodd">
        <mask id="b" fill="#fff">
            <use xlink:href="#a"/>
        </mask>
        <path fill="#00467f" d="M7.475 13.452A5.983 5.983 0 0 1 1.5 7.48C1.5 4.183 4.182 1.5 7.477 1.5a5.986 5.986 0 0 1 5.977 5.978 5.984 5.984 0 0 1-5.979 5.975m9.44 2.692l-3.787-3.787a7.438 7.438 0 0 0 1.826-4.88C14.953 3.354 11.598 0 7.477 0 3.355 0 0 3.356 0 7.48 0 11.6 3.355 14.951 7.475 14.951a7.435 7.435 0 0 0 4.562-1.565l3.818 3.818a.748.748 0 0 0 1.06 0 .75.75 0 0 0 0-1.06M2.522 7.474h.75A4.21 4.21 0 0 1 7.477 3.27v-.75a4.96 4.96 0 0 0-4.955 4.955" mask="url(#b)"/>
    </g>
</svg>
