<svg width="14px" height="15px" viewBox="0 0 14 15" version="1.1" xmlns="http://www.w3.org/2000/svg" xmlns:xlink="http://www.w3.org/1999/xlink">
    <title>84508877-A58B-41AF-9634-A9F4736FA2A1</title>
    <desc>Created with sketchtool.</desc>
    <defs></defs>
    <g id="xizal" stroke="none" stroke-width="1" fill="none" fill-rule="evenodd">
        <g id="2_dv_xizal" transform="translate(-115.000000, -2562.000000)" fill="#6690B3">
            <path d="M116.485127,2563.40845 C116.486596,2563.42954 116.468968,2563.49142 116.468968,2563.59901 L116.468968,2575.4031 C116.468968,2575.49873 116.482923,2575.5578 116.495409,2575.59015 C116.52993,2575.58382 116.590892,2575.56624 116.67903,2575.51842 L127.356225,2569.61462 C127.453911,2569.56188 127.500184,2569.51688 127.520749,2569.49156 C127.500184,2569.48312 127.453911,2569.43742 127.356959,2569.38468 L116.677562,2563.48228 C116.582079,2563.42884 116.517444,2563.41337 116.485127,2563.40845 M116.462358,2577 C115.601542,2577 115,2576.34394 115,2575.4031 L115,2563.59901 C115,2562.65746 115.601542,2562 116.461623,2562 C116.775982,2562 117.094748,2562.0893 117.412046,2562.26439 L128.090709,2568.16679 C128.668748,2568.48533 129,2568.97122 129,2569.4993 C129,2570.02808 128.668748,2570.51397 128.090709,2570.83321 L117.412046,2576.73631 C117.094748,2576.9114 116.775982,2577 116.462358,2577" id="Fill-1-Copy-2"></path>
        </g>
    </g>
</svg>