<svg xmlns="http://www.w3.org/2000/svg" width="13" height="18" viewBox="0 0 13 18">
    <path fill="#F58221" fill-rule="evenodd" d="M12.693 9.667c-.306-.517-1.154-.946-2.281-.2-1.523 1.008-3.97 1.008-3.97 1.008s-2.445 0-3.968-1.008c-1.127-.746-1.975-.317-2.28.2-.535.9.068 1.336 1.43 2.07 1.161.627 2.758.861 3.79.949l-.861.723a43154.92 43154.92 0 0 0-3.195 2.685c-.486.408-.486 1.069 0 1.477l.146.123c.486.408 1.273.408 1.758 0l3.195-2.684 3.195 2.684c.486.408 1.273.408 1.758 0l.147-.123c.485-.408.485-1.07 0-1.477l-4.059-3.41c1.032-.09 2.612-.325 3.765-.947 1.36-.734 1.963-1.17 1.43-2.07zm-6.25-7.353c1.473 0 2.667 1.004 2.667 2.242 0 1.237-1.194 2.24-2.667 2.24-1.473 0-2.667-1.003-2.667-2.24 0-1.238 1.194-2.242 2.667-2.242zm0 6.797c2.994 0 5.422-2.04 5.422-4.555C11.865 2.04 9.437 0 6.443 0 3.448 0 1.02 2.04 1.02 4.556S3.448 9.11 6.443 9.11z"/>
</svg>
