<svg xmlns="http://www.w3.org/2000/svg" width="35" height="35" viewBox="0 0 35 35">
    <path fill-rule="evenodd" d="M27.901 27.893A14.62 14.62 0 0 1 17.5 32.2c-3.927 0-7.62-1.528-10.396-4.304A14.605 14.605 0 0 1 2.8 17.5c0-3.928 1.53-7.62 4.306-10.396A14.612 14.612 0 0 1 17.503 2.8c3.927 0 7.62 1.528 10.397 4.304 5.733 5.732 5.733 15.057.001 20.79m1.981-22.77A17.393 17.393 0 0 0 17.504 0 17.384 17.384 0 0 0 5.128 5.124 17.379 17.379 0 0 0 0 17.5a17.372 17.372 0 0 0 5.125 12.376A17.384 17.384 0 0 0 17.501 35c4.677 0 9.074-1.82 12.383-5.127 6.822-6.823 6.821-17.925-.002-24.749m-9.308 7.21L17.5 15.408l-3.074-3.074a1.478 1.478 0 0 0-2.092 0 1.478 1.478 0 0 0 0 2.093l3.074 3.073-3.074 3.074A1.478 1.478 0 0 0 13.38 23.1c.379 0 .756-.145 1.046-.434l3.074-3.073 3.074 3.073a1.476 1.476 0 0 0 2.092 0 1.478 1.478 0 0 0 0-2.092L19.592 17.5l3.074-3.073a1.478 1.478 0 0 0 0-2.093 1.478 1.478 0 0 0-2.092 0z"/>
</svg>
