<svg xmlns="http://www.w3.org/2000/svg" xmlns:xlink="http://www.w3.org/1999/xlink" width="18" height="18" viewBox="0 0 18 18">
    <defs>
        <path id="a" d="M0 0h17.116v18H0z"/>
    </defs>
    <g fill-rule="evenodd">
        <g>
            <mask id="b" fill="#fff">
                <use xlink:href="#a"/>
            </mask>
            <path d="M16.116 12.545a.495.495 0 0 1-.495.495H13.9V8.779H3.216v4.26H1.494A.495.495 0 0 1 1 12.546V5.942c0-.273.221-.495.494-.495h14.127c.273 0 .495.222.495.495v6.603zm-3.217 4.25a.205.205 0 0 1-.204.205H4.42a.204.204 0 0 1-.204-.204V9.779H12.9v7.017zM4.254 1l8.645.037v3.41H4.22L4.254 1zm11.367 3.447H13.9v-3.41C13.9.465 13.434 0 12.862 0H4.254c-.573 0-1.038.465-1.038 1.037v3.41H1.494C.67 4.447 0 5.117 0 5.942v6.603c0 .824.67 1.495 1.494 1.495h1.722v2.756c0 .664.54 1.204 1.204 1.204h8.275c.664 0 1.204-.54 1.204-1.204V14.04h1.722c.824 0 1.495-.671 1.495-1.495V5.942c0-.824-.67-1.495-1.495-1.495z" mask="url(#b)"/>
        </g>
        <path d="M5.986 11.738h5.144a.5.5 0 0 0 0-1H5.986a.5.5 0 0 0 0 1M5.986 13.804h5.144a.5.5 0 0 0 0-1H5.986a.5.5 0 0 0 0 1M5.986 15.826h5.144a.5.5 0 0 0 0-1H5.986a.5.5 0 0 0 0 1M2.567 6.334a.602.602 0 1 0 .003 1.205.602.602 0 0 0-.003-1.205"/>
    </g>
</svg>
