<svg xmlns="http://www.w3.org/2000/svg" xmlns:xlink="http://www.w3.org/1999/xlink" width="20" height="18" viewBox="0 0 20 18">
    <defs>
        <path id="a" d="M0 0H19.97v18H0z"/>
    </defs>
    <g fill="none" fill-rule="evenodd" opacity=".5">
        <g>
            <mask id="b" fill="#fff">
                <use xlink:href="#a"/>
            </mask>
            <path fill="#464645" d="M18.802 12.545c0 .273-.259.495-.577.495h-2.01V9H3.753v4.04H1.743c-.318 0-.576-.222-.576-.495V5.49c0-.273.258-.495.576-.495h16.482c.318 0 .577.222.577.495v7.055zm-3.753 4.25c0 .113-.107.205-.238.205H5.157c-.132 0-.238-.092-.238-.204V9.979h10.13v6.817zM4.963 1H15.05v3.01H4.963V1zm11.253 3.008V1.037c0-.572-.543-1.037-1.21-1.037H4.963c-.668 0-1.21.465-1.21 1.037v2.97h-2.01C.782 4.008 0 4.188 0 5.013v7.533c0 .824.782 1.495 1.743 1.495h2.01v2.756c0 .664.63 1.204 1.404 1.204h9.654c.775 0 1.405-.54 1.405-1.204V14.04h2.009c.961 0 1.744-.671 1.744-1.495V5.012c0-.824-.783-1.004-1.744-1.004h-2.01z" mask="url(#b)"/>
        </g>
        <path fill="#464645" d="M6.984 12h6.001c.322 0 .584-.224.584-.5s-.262-.5-.584-.5H6.984c-.322 0-.583.224-.583.5s.261.5.583.5M6.984 14h6.001c.322 0 .584-.224.584-.5s-.262-.5-.584-.5H6.984c-.322 0-.583.224-.583.5s.261.5.583.5M12.985 16c.322 0 .584-.224.584-.5s-.262-.5-.584-.5H6.984c-.322 0-.583.224-.583.5s.261.5.583.5h6.001zM2.072 6.46c0 .333.537.476.923.476.388 0 1-.143 1-.475 0-.332-.612-.476-1-.476-.386 0-.923.144-.923.476z"/>
    </g>
</svg>
