<svg xmlns="http://www.w3.org/2000/svg" width="100" height="100" viewBox="0 0 100 100">
    <g fill-rule="nonzero">
        <path d="M50 1C23.05 1 1 23.05 1 50s22.05 49 49 49 49-22.05 49-49S76.95 1 50 1z" opacity=".8"/>
        <g fill="#FFF">
            <path d="M76 48.667l-36.667-25c-.5-.334-1.166-.334-1.666-.167-.667.333-1 .833-1 1.5v50c0 .667.333 1.167.833 1.5.333.167.5.167.833.167.334 0 .667-.167 1-.334l36.667-25c.5-.333.667-.833.667-1.333s-.334-1-.667-1.333zM40 71.833V28.167L72 50 40 71.833z"/>
            <path d="M50 0C22.5 0 0 22.5 0 50s22.5 50 50 50 50-22.5 50-50S77.5 0 50 0zm0 96.667c-25.667 0-46.667-21-46.667-46.667S24.333 3.333 50 3.333s46.667 21 46.667 46.667-21 46.667-46.667 46.667z"/>
        </g>
    </g>
</svg>
