<svg xmlns="http://www.w3.org/2000/svg" width="220" height="55" viewBox="0 0 220 55">
    <g fill="#00ABE0" fill-rule="evenodd">
        <path d="M2.904 16.826c-.016-3.555 1.373-6.93 3.91-9.503a13.859 13.859 0 0 1 9.875-4.16l47.503-.216c7.635-.035 13.872 6.038 13.904 13.536a13.326 13.326 0 0 1-2.96 8.435 12.425 12.425 0 0 0 1.351-5.687c-.033-7.274-6.4-13.195-14.15-13.16l-26.282.102c-5.524 13.912.623 24.084.623 24.084l-19.87.105c-7.633.035-13.87-6.036-13.904-13.536m13.918 16.485l23.677-.11L68.124 52l-3.8-18.907a16.726 16.726 0 0 0 11.915-5.021c3.09-3.134 4.782-7.256 4.76-11.603C80.96 7.346 73.416-.043 64.18 0L16.675.217A16.726 16.726 0 0 0 4.76 5.237C1.67 8.373-.02 12.491 0 16.84c.04 9.123 7.584 16.512 16.82 16.47M129.146 50.361c.726 0 1.202-.622 1.202-1.368 0-.721-.452-1.335-1.202-1.335-.578-.011-1.147 0-1.725 0v2.703h1.725zm-3.394 3.627V46.2c1.137-.01 2.259 0 3.394 0 1.85 0 2.827 1.369 2.827 2.836 0 1.446-1.011 2.747-2.827 2.747h-1.69v2.204h-1.704zm-7.3-6.33v-1.446h5.88v1.446h-2.111v6.34h-1.645v-6.34h-2.125zm-3.113 6.34v-3.292h-3.04v3.291h-1.692v-7.785h1.692v2.971h3.04v-2.97h1.706v7.784h-1.706zm-6.64-6.328h-3.154v1.579h2.951v1.457h-2.95v1.78h3.245v1.511h-4.96v-7.785h4.868v1.458zM95 53.997v-7.785h1.702v6.274h2.86v-6.274h1.714v6.374h.952V55h-1.509v-1.003H95zm119.983-24.743c.057 1.146.795 1.869 2.009 1.869 1.261 0 1.953-.733 2.022-1.869-.33-.032-.796-.077-1.135-.1-.092.513-.41.702-.897.702-.523 0-.795-.245-.852-.702l-1.147.1zm-1.168 10.188h-.512v-7.807h1.704v4.415l4.46-4.447H220v7.817h-1.692v-4.447l-4.493 4.469zm-4.327-.022h1.69v-7.787h-1.69v7.787zm-4.143-3.88h-1.53v2.411c.464 0 .942.012 1.418.012.873 0 1.385-.334 1.464-1.066.066-.702-.386-1.358-1.18-1.358h-.172zm-1.53-3.716v2.246h1.701c1.999 0 2.985 1.523 2.804 3.014-.16 1.259-1.136 2.336-2.804 2.336h-3.36v-7.785h1.658v.19zm-5.486 7.596v-3.293h-3.041v3.293h-1.69v-7.785h1.69v2.97h3.041v-2.97h1.702v7.785h-1.702zm-8.56 0v-3.293h-3.04v3.293h-1.691v-7.785h1.691v2.97h3.04v-2.97h1.704v7.785h-1.704zm-10.466-1.39c1.237 0 2.36-.802 2.36-2.502 0-1.658-1.111-2.48-2.349-2.48-1.249 0-2.36.833-2.36 2.48 0 1.7 1.078 2.502 2.349 2.502zm-.024 1.523c-2.12 0-4.04-1.401-4.04-4.025 0-2.626 1.964-4.016 4.075-4.016 2.078 0 4.041 1.402 4.041 4.016 0 2.37-1.67 4.025-4.076 4.025zm-11.907-.111h-.51v-7.807h1.7v4.415l4.463-4.447h.533v7.817h-1.69v-4.447l-4.496 4.469zm-9.34-.022v-7.785h1.699v6.274h2.86v-6.274h1.714v6.372h.952v2.414h-1.507v-1h-5.719zm-6.283-2.691h2.202l-1.1-2.57-1.102 2.57zm-.554 1.402l-.612 1.29h-1.773v-.224l3.657-7.63h.781l3.634 7.63v.223h-1.76l-.624-1.29h-3.303zm-4.136-6.519h.614v7.808h-1.702v-4.214l-1.999 2.446h-.214l-1.997-2.446v4.214h-1.702v-7.808h.622l3.19 3.704 3.188-3.704zm-11.316 4.17c.726 0 1.202-.622 1.202-1.367 0-.722-.455-1.334-1.202-1.334-.579-.011-1.145 0-1.726 0v2.701h1.726zm-3.394 3.627v-7.785c1.135-.012 2.258 0 3.394 0 1.849 0 2.825 1.369 2.825 2.836 0 1.446-1.01 2.747-2.825 2.747h-1.692v2.202h-1.702zm-5.745-1.379c1.238 0 2.359-.802 2.359-2.502 0-1.658-1.11-2.48-2.347-2.48-1.25 0-2.36.833-2.36 2.48 0 1.7 1.077 2.502 2.348 2.502zm-.023 1.523c-2.123 0-4.04-1.401-4.04-4.025 0-2.626 1.964-4.016 4.075-4.016 2.077 0 4.04 1.402 4.04 4.016 0 2.37-1.67 4.025-4.075 4.025zm-9.198-5.739v3.414c1.058-.042 2.113-.387 2.113-1.712 0-1.322-1.033-1.679-2.113-1.702zm-1.542 3.414v-3.414c-1.088.023-2.111.38-2.111 1.702 0 1.325 1.068 1.67 2.11 1.712zm-.012 1.414c-2.052-.056-3.801-1.001-3.801-3.126 0-2.124 1.749-3.08 3.79-3.148v-.756h1.59v.756c2.088.068 3.79.935 3.79 3.148 0 2.214-1.76 3.07-3.803 3.126v.8h-1.566v-.8zm-7.276.778v-3.293h-3.041v3.293h-1.69v-7.785h1.69v2.97h3.041v-2.97h1.702v7.785h-1.702zm-13.043.022H95v-7.807h1.702v4.415l4.46-4.447h.533v7.817h-1.692v-4.447l-4.493 4.469zm87.505-24.765c.057 1.146.795 1.868 2.009 1.868 1.26 0 1.953-.732 2.022-1.868-.33-.032-.797-.077-1.135-.1-.09.513-.41.702-.899.702-.521 0-.795-.245-.85-.702l-1.147.1zm-1.169 10.188h-.511v-7.807h1.704v4.415l4.46-4.45h.533v7.82h-1.692v-4.447l-4.494 4.469zm-8.82 0h-.51v-7.807h1.7v4.415l4.461-4.45h.533v7.82h-1.69v-4.447l-4.493 4.469zm-7.084-4.593c.488 0 1.055.012 1.371-.144.421-.222.579-.812.797-1.691.27-.968.964-1.724 2.711-1.369v1.136c-.635-.056-.976.133-1.145.722-.24.89-.511 1.591-1 2.07l2.428 3.602v.245h-1.916l-1.999-3.202c-.305.077-.895.077-1.247.077v3.125h-1.692v-7.785h1.692v3.214zm-6.996-3.293c1.601 0 3.303.847 3.667 2.77h-1.644c-.353-.878-1.069-1.268-2.023-1.268-1.405 0-2.347 1-2.347 2.48 0 1.336.919 2.448 2.337 2.448.988 0 1.794-.457 2.064-1.402h1.635c-.339 2.057-2.03 2.913-3.689 2.913-2.087 0-4.063-1.378-4.063-3.96 0-2.59 1.976-4.013 4.063-3.98zm-7.447 7.864V21.55h-3.041v3.293h-1.69v-7.785h1.69v2.97h3.041v-2.97h1.704v7.785H151.5zm-13.043.022h-.508v-7.807h1.7v4.415l4.46-4.45h.535v7.82h-1.692v-4.447l-4.495 4.469zm-9.341-.022v-7.785h1.701v6.272h2.86v-6.272h1.714v6.372h.953v2.414h-1.507v-1h-5.721zm-8.31.022h-.512v-7.807h1.702v4.415l4.46-4.45h.533v7.82h-1.69v-4.447l-4.494 4.469zm-7.12-2.459c-.034.346-.194.835-.534 1.057h2.985v-4.97h-2.033l-.419 3.913zm-2.588 1.024c.68-.011.817-.345.907-1.09l.624-5.282h5.176v6.372h.852v2.514h-1.52v-1.1h-4.71v1.1h-1.602V23.43h.273zm-1.49-4.916h-3.153v1.579h2.951v1.457h-2.95v1.78h3.245v1.513h-4.96v-7.785h4.868v1.456zm-7.605-1.479h.614v7.808h-1.704V20.63l-1.997 2.446H98.7l-1.997-2.446v4.214H95v-7.808h.624l3.189 3.704 3.189-3.704zM138.796.1c.057 1.145.795 1.868 2.01 1.868 1.258 0 1.95-.734 2.02-1.868a40.683 40.683 0 0 0-1.136-.1c-.09.51-.407.7-.895.7-.523 0-.795-.243-.854-.7l-1.145.1zm-1.167 10.187h-.511V2.481h1.702v4.415l4.46-4.45h.533v7.82h-1.69v-4.45l-4.494 4.471zm-4.328-.02h1.692V2.48h-1.692v7.785zm-4.143-3.884h-1.53v2.414c.463 0 .94.012 1.416.012.875 0 1.385-.334 1.463-1.068.07-.7-.385-1.358-1.178-1.358h-.171zm-1.53-3.715v2.248h1.701c1.997 0 2.983 1.523 2.803 3.014-.159 1.257-1.137 2.336-2.803 2.336h-3.36V2.481h1.658v.187zm-7.868 4.373v1.78h1.882c.579 0 .92-.336.955-.859.01-.31-.117-.6-.355-.767-.19-.133-.419-.154-.678-.154h-1.804zm0-3.125v1.768h1.554c.576 0 .94-.313.952-.835.012-.567-.364-.933-.952-.933h-1.554zm3.38 2.311c.737.301 1.135.935 1.135 1.735 0 1.37-.929 2.304-2.52 2.304h-3.687V2.491h3.37c1.452 0 2.496.844 2.496 2.302 0 .569-.295 1.135-.794 1.434zm-9.4.401c.727 0 1.203-.622 1.203-1.369 0-.723-.454-1.332-1.204-1.332-.578-.011-1.145 0-1.723 0v2.701h1.723zm-3.394 3.627V2.47c1.135-.012 2.26 0 3.393 0 1.85 0 2.828 1.367 2.828 2.834 0 1.446-1.01 2.749-2.828 2.749h-1.69v2.202h-1.703zm-1.917-6.318h-3.157v1.579h2.95v1.457h-2.95v1.78h3.248v1.513h-4.96V2.481h4.87v1.456zm-6.996-1.456v7.785h-1.701V3.993h-3.03v6.273H95V2.481h6.433z"/>
    </g>
</svg>
