<?xml version="1.0" encoding="UTF-8"?>
<svg width="51px" height="50px" viewBox="0 0 51 50" version="1.1" xmlns="http://www.w3.org/2000/svg" xmlns:xlink="http://www.w3.org/1999/xlink">
    <!-- Generator: sketchtool 51.2 (57519) - http://www.bohemiancoding.com/sketch -->
    <title>69C8E088-4B04-48DC-A81C-F64C4F7B65C8</title>
    <desc>Created with sketchtool.</desc>
    <defs>
        <polygon id="path-1" points="0.0008 0 50.0738 0 50.0738 50 0.0008 50"></polygon>
    </defs>
    <g id="Symbols" stroke="none" stroke-width="1" fill="none" fill-rule="evenodd">
        <g id="footer" transform="translate(-1004.000000, -65.000000)">
            <g id="Group-14" transform="translate(1004.000000, 65.000000)">
                <path d="M27.3852,23.2194 C29.4692,23.2194 30.3022,22.3854 30.3022,19.9234 C30.3022,17.3864 29.4692,16.6274 27.3852,16.6274 C25.3022,16.6274 24.4692,17.3864 24.4692,19.9234 C24.4692,22.3854 25.3022,23.2194 27.3852,23.2194" id="Fill-1" fill="#FFFFFF"></path>
                <path d="M27.3852,26.7418 C24.9612,26.7418 24.0902,27.8398 24.0902,30.2258 C24.0902,32.6128 24.9612,33.5588 27.3852,33.5588 C29.8092,33.5588 30.6812,32.6128 30.6812,30.2258 C30.6812,27.8398 29.8092,26.7418 27.3852,26.7418" id="Fill-3" fill="#FFFFFF"></path>
                <path d="M27.3852,37.1588 C21.6652,37.0438 20.1892,34.9618 20.1892,30.7568 C20.1892,27.9168 20.3782,25.7578 22.9152,24.7718 C20.7942,23.2198 20.7562,21.6288 20.7562,20.3408 L20.7562,19.0528 C20.9852,14.7718 22.4232,13.1428 27.3852,13.1428 C32.3472,13.1428 33.7862,14.7718 34.0132,19.0528 L34.0132,20.3408 C34.0132,21.6288 33.9762,23.2198 31.8552,24.7718 C34.3932,25.7578 34.5822,27.9168 34.5822,30.7568 C34.5822,34.9618 33.1052,37.0438 27.3852,37.1588 Z M36.7032,4.3938 C35.8312,3.5218 34.7342,3.2578 33.4842,3.2578 L16.5902,3.2578 C15.3402,3.2578 14.2422,3.5218 13.3702,4.3938 L4.7732,13.1058 C3.7502,14.1288 3.2952,15.3408 3.2952,16.7418 L3.2952,33.4458 C3.2562,34.8468 3.7122,35.8698 4.6972,36.8548 L13.1432,45.3018 C14.1282,46.2858 15.2272,46.7408 16.5902,46.7408 L33.4842,46.7408 C34.8472,46.7408 35.9462,46.2858 36.9312,45.3018 L45.3772,36.8548 C46.3622,35.9078 46.7792,34.8468 46.7792,33.4458 L46.7792,27.6878 C46.7402,27.1958 46.4762,26.9308 45.9832,26.9308 L43.4462,26.9308 L43.4462,28.7118 C43.4462,30.0368 43.2562,30.7188 42.1192,30.7188 L40.9832,30.7188 C39.8472,30.7188 39.6572,30.0368 39.6572,28.7118 L39.6572,26.9308 L37.8772,26.9308 C36.5522,26.9308 35.8692,26.7418 35.8692,25.6058 L35.8692,24.3928 C35.8692,23.2578 36.5522,23.0678 37.8772,23.0678 L39.6572,23.0678 L39.6572,21.2868 C39.6572,19.9618 39.8472,19.2798 40.9832,19.2798 L42.1192,19.2798 C43.2562,19.2798 43.4462,19.9618 43.4462,21.2868 L43.4462,23.0678 L45.9832,23.0678 C46.5132,23.0678 46.7792,22.7638 46.7792,22.1968 L46.7792,16.7418 C46.7792,15.3408 46.2852,14.1288 45.3012,13.1058 L36.7032,4.3938 Z" id="Fill-5" fill="#FFFFFF"></path>
                <path d="M15.3842,13.5602 L11.9372,13.5602 C10.6122,13.5602 9.9302,13.7882 9.9302,14.8862 L9.9302,16.1352 C9.9302,17.2352 10.6122,17.4612 11.9372,17.4612 L12.7332,17.4612 C13.2252,17.4612 13.4512,17.7262 13.4512,18.4842 L13.4512,34.8472 C13.4512,36.1732 13.6802,36.8552 14.7792,36.8552 L16.0662,36.8552 C17.1642,36.8552 17.3922,36.1732 17.3922,34.8472 L17.3922,14.8862 C17.3922,13.7882 16.7092,13.5602 15.3842,13.5602" id="Fill-7" fill="#0277BD"></path>
                <g id="Group-11">
                    <mask id="mask-2" fill="white">
                        <use xlink:href="#path-1"></use>
                    </mask>
                    <g id="Clip-10"></g>
                    <path d="M46.7788,22.1969 C46.7788,22.7639 46.5128,23.0679 45.9828,23.0679 L43.4458,23.0679 L43.4458,21.2869 C43.4458,19.9619 43.2568,19.2799 42.1198,19.2799 L40.9828,19.2799 C39.8468,19.2799 39.6578,19.9619 39.6578,21.2869 L39.6578,23.0679 L37.8778,23.0679 C36.5518,23.0679 35.8698,23.2579 35.8698,24.3929 L35.8698,25.6059 C35.8698,26.7419 36.5518,26.9309 37.8778,26.9309 L39.6578,26.9309 L39.6578,28.7119 C39.6578,30.0369 39.8468,30.7179 40.9828,30.7179 L42.1198,30.7179 C43.2568,30.7179 43.4458,30.0369 43.4458,28.7119 L43.4458,26.9309 L45.9828,26.9309 C46.4758,26.9309 46.7408,27.1959 46.7788,27.6879 L46.7788,33.4459 C46.7788,34.8469 46.3618,35.9079 45.3778,36.8549 L36.9308,45.3009 C35.9458,46.2859 34.8468,46.7409 33.4838,46.7409 L16.5908,46.7409 C15.2268,46.7409 14.1288,46.2859 13.1428,45.3009 L4.6968,36.8549 C3.7128,35.8699 3.2568,34.8469 3.2958,33.4459 L3.2958,16.7419 C3.2958,15.3409 3.7508,14.1289 4.7728,13.1059 L13.3708,4.3939 C14.2428,3.5219 15.3408,3.2579 16.5908,3.2579 L33.4838,3.2579 C34.7338,3.2579 35.8318,3.5219 36.7038,4.3939 L45.3008,13.1059 C46.2858,14.1289 46.7788,15.3409 46.7788,16.7419 L46.7788,22.1969 Z M39.0128,2.1969 C37.5368,0.7589 35.6798,-0.0001 33.4458,-0.0001 L16.6288,-0.0001 C14.3928,-0.0001 12.4998,0.7589 11.0598,2.1969 L2.1588,11.0599 C0.7578,12.4629 0.0008,14.3179 0.0008,16.3639 L0.0008,33.4459 C0.0008,35.7939 0.7958,37.6119 2.3858,39.1659 L10.8338,47.6119 C12.4998,49.2789 14.3548,50.0359 16.7418,49.9989 L33.3328,49.9989 C35.6428,49.9989 37.5368,49.3159 39.2408,47.6119 L47.6878,39.1659 C49.2408,37.6119 50.0738,35.7569 50.0738,33.4459 L50.0738,16.3639 C50.0738,14.3179 49.3168,12.4629 47.9158,11.0599 L39.0128,2.1969 Z" id="Fill-9" fill="#0277BD" mask="url(#mask-2)"></path>
                </g>
                <path d="M27.3852,33.5592 C24.9612,33.5592 24.0902,32.6132 24.0902,30.2262 C24.0902,27.8392 24.9612,26.7422 27.3852,26.7422 C29.8092,26.7422 30.6812,27.8392 30.6812,30.2262 C30.6812,32.6132 29.8092,33.5592 27.3852,33.5592 M27.3852,16.6272 C29.4692,16.6272 30.3022,17.3862 30.3022,19.9232 C30.3022,22.3852 29.4692,23.2192 27.3852,23.2192 C25.3022,23.2192 24.4692,22.3852 24.4692,19.9232 C24.4692,17.3862 25.3022,16.6272 27.3852,16.6272 M31.8552,24.7722 C33.9762,23.2192 34.0132,21.6282 34.0132,20.3402 L34.0132,19.0522 C33.7862,14.7722 32.3472,13.1432 27.3852,13.1432 C22.4232,13.1432 20.9852,14.7722 20.7562,19.0522 L20.7562,20.3402 C20.7562,21.6282 20.7942,23.2192 22.9152,24.7722 C20.3782,25.7572 20.1892,27.9162 20.1892,30.7562 C20.1892,34.9612 21.6652,37.0432 27.3852,37.1592 C33.1052,37.0432 34.5822,34.9612 34.5822,30.7562 C34.5822,27.9162 34.3932,25.7572 31.8552,24.7722" id="Fill-12" fill="#0277BD"></path>
            </g>
        </g>
    </g>
</svg>