<svg xmlns="http://www.w3.org/2000/svg" width="20" height="20" viewBox="0 0 20 20">
    <g fill-rule="evenodd">
        <path fill-rule="nonzero" d="M2.929 2.931A9.938 9.938 0 0 1 10 0a9.938 9.938 0 0 1 7.072 2.931c3.645 3.644 3.909 9.464.662 13.409.448.917.976 1.529 1.575 1.822.365.18.57.573.511.975a.929.929 0 0 1-.779.783c-.222.034-.46.055-.708.055-1.228 0-2.518-.423-3.595-1.164C13.29 19.59 11.66 20 10.001 20a9.934 9.934 0 0 1-7.072-2.927A9.931 9.931 0 0 1 0 10.004a9.941 9.941 0 0 1 2.929-7.073zm.8 13.338A8.816 8.816 0 0 0 10 18.865a8.871 8.871 0 0 0 4.491-1.218.585.585 0 0 1 .285-.08.59.59 0 0 1 .348.117c1.282.993 2.572 1.14 3.138 1.152-.675-.503-1.24-1.282-1.714-2.366a.569.569 0 0 1 .097-.603c3.1-3.501 2.936-8.836-.373-12.144A8.816 8.816 0 0 0 10 1.126a8.816 8.816 0 0 0-6.272 2.597c-3.46 3.463-3.46 9.091 0 12.546z"/>
        <path d="M6.476 6h7.048c.265 0 .476.222.476.5s-.211.5-.476.5H6.476A.486.486 0 0 1 6 6.5c0-.278.215-.5.476-.5zM6.476 9h7.048c.265 0 .476.222.476.5s-.211.5-.476.5H6.476A.486.486 0 0 1 6 9.5c0-.278.215-.5.476-.5zM6.476 12h7.048c.265 0 .476.222.476.5s-.211.5-.476.5H6.476A.486.486 0 0 1 6 12.5c0-.278.215-.5.476-.5z"/>
    </g>
</svg>
