<?xml version="1.0" encoding="UTF-8" standalone="no"?>
<svg
   xmlns:dc="http://purl.org/dc/elements/1.1/"
   xmlns:cc="http://creativecommons.org/ns#"
   xmlns:rdf="http://www.w3.org/1999/02/22-rdf-syntax-ns#"
   xmlns:svg="http://www.w3.org/2000/svg"
   xmlns="http://www.w3.org/2000/svg"
   xmlns:sodipodi="http://sodipodi.sourceforge.net/DTD/sodipodi-0.dtd"
   xmlns:inkscape="http://www.inkscape.org/namespaces/inkscape"
   width="19px"
   height="18px"
   viewBox="0 0 19 18"
   version="1.1"
   id="svg3922"
   sodipodi:docname="icon-favorite-selected.svg"
   inkscape:version="0.92.3 (2405546, 2018-03-11)">
  <metadata
     id="metadata3926">
    <rdf:RDF>
      <cc:Work
         rdf:about="">
        <dc:format>image/svg+xml</dc:format>
        <dc:type
           rdf:resource="http://purl.org/dc/dcmitype/StillImage" />
        <dc:title>F08CB689-57E9-465B-B4D5-EB287949115B</dc:title>
      </cc:Work>
    </rdf:RDF>
  </metadata>
  <sodipodi:namedview
     pagecolor="#ffffff"
     bordercolor="#666666"
     borderopacity="1"
     objecttolerance="10"
     gridtolerance="10"
     guidetolerance="10"
     inkscape:pageopacity="0"
     inkscape:pageshadow="2"
     inkscape:window-width="1920"
     inkscape:window-height="1137"
     id="namedview3924"
     showgrid="false"
     inkscape:zoom="13.111111"
     inkscape:cx="-6.5169492"
     inkscape:cy="9"
     inkscape:window-x="-8"
     inkscape:window-y="-8"
     inkscape:window-maximized="1"
     inkscape:current-layer="6_xizal_video_single-6" />
  <!-- Generator: sketchtool 51.2 (57519) - http://www.bohemiancoding.com/sketch -->
  <title
     id="title3912">F08CB689-57E9-465B-B4D5-EB287949115B</title>
  <desc
     id="desc3914">Created with sketchtool.</desc>
  <defs
     id="defs3916">
    <filter
       inkscape:collect="always"
       style="color-interpolation-filters:sRGB"
       id="filter6369"
       x="-0.0093473672"
       width="1.0186947"
       y="-0.009866668"
       height="1.0197333">
      <feGaussianBlur
         inkscape:collect="always"
         stdDeviation="0.074000009"
         id="feGaussianBlur6371" />
    </filter>
  </defs>
  <g
     inkscape:groupmode="layer"
     id="layer3"
     inkscape:label="Layer 3"
     style="display:inline">
    <g
       style="opacity:1;fill:#6690b3;fill-opacity:1;fill-rule:evenodd;stroke:none;stroke-width:0.15462068;stroke-miterlimit:4;stroke-dasharray:none;stroke-opacity:1;paint-order:stroke fill markers"
       transform="matrix(0.51538814,0,0,0.51538814,-344.10501,-536.75311)"
       id="6_xizal_video_single-6-2">
      <g
         transform="matrix(0.85201214,0,0,0.85201214,335.49112,1043.1437)"
         id="Group-2-0-9"
         style="fill:#6690b3;fill-opacity:1;fill-rule:evenodd;stroke:none;stroke-width:0.15462068;stroke-miterlimit:4;stroke-dasharray:none;stroke-opacity:1;paint-order:stroke fill markers">
        <path
           inkscape:connector-curvature="0"
           id="icon_favorite-0-4"
           d="m 411.49958,22.610536 c 0.15564,0 0.30977,0.04699 0.4421,0.142471 l 3.53458,2.547319 -1.35112,-4.121212 c -0.1,-0.308065 0.0105,-0.644475 0.27293,-0.834685 l 3.53533,-2.547319 h -4.36916 c -0.32557,0 -0.61354,-0.208112 -0.71504,-0.515432 l -1.34962,-4.121212 -1.34962,4.121212 c -0.1,0.30732 -0.38947,0.515432 -0.71503,0.515432 h -4.36916 l 3.53532,2.547319 c 0.26391,0.19021 0.37444,0.52662 0.27294,0.834685 l -1.35113,4.121212 3.53458,-2.547319 c 0.13233,-0.09548 0.28797,-0.142471 0.4421,-0.142471 m 5.40675,5.389277 c -0.15413,0 -0.30977,-0.04774 -0.44135,-0.14247 l -4.9654,-3.578928 -4.9654,3.578928 c -0.26391,0.190209 -0.61954,0.190209 -0.88345,0 -0.26316,-0.19021 -0.37293,-0.52662 -0.27369,-0.83394 l 1.89774,-5.790583 -4.9654,-3.578181 c -0.2624,-0.19021 -0.37293,-0.52662 -0.27293,-0.83394 0.10151,-0.307319 0.38947,-0.515431 0.71504,-0.515431 h 6.13682 l 1.89623,-5.789837 C 410.88605,10.208112 411.17327,10 411.49958,10 c 0.32631,0 0.61504,0.208112 0.71504,0.515431 l 1.89623,5.789837 h 6.13682 c 0.32557,0 0.61504,0.208112 0.71504,0.515431 0.1015,0.30732 -0.009,0.64373 -0.27293,0.83394 l -4.9654,3.578181 1.89774,5.790583 c 0.10075,0.30732 -0.009,0.64373 -0.27369,0.83394 -0.13082,0.09473 -0.28646,0.14247 -0.4421,0.14247"
           style="fill:#6690b3;fill-opacity:1;fill-rule:evenodd;stroke:none;stroke-width:0.15462068;stroke-miterlimit:4;stroke-dasharray:none;stroke-opacity:1;paint-order:stroke fill markers" />
      </g>
    </g>
  </g>
  <g
     inkscape:groupmode="layer"
     id="layer2"
     inkscape:label="Layer 2"
     style="display:inline">
    <g
       style="opacity:1;fill:#6690b3;fill-opacity:1;fill-rule:evenodd;stroke:none;stroke-width:0.15462068;stroke-miterlimit:4;stroke-dasharray:none;stroke-opacity:1;paint-order:stroke fill markers"
       transform="matrix(0.64674407,0,0,0.64674407,-435.1367,-675.05847)"
       id="6_xizal_video_single-6">
      <g
         transform="translate(276,1039)"
         id="Group-2-0"
         style="fill:#6690b3;fill-opacity:1;fill-rule:evenodd;stroke:none;stroke-width:0.15462068;stroke-miterlimit:4;stroke-dasharray:none;stroke-opacity:1;paint-order:stroke fill markers;filter:url(#filter6369)">
        <path
           inkscape:connector-curvature="0"
           id="icon_favorite-0"
           d="m 411.49958,22.610536 c 0.15564,0 0.30977,0.04699 0.4421,0.142471 l 3.53458,2.547319 -1.35112,-4.121212 c -0.1,-0.308065 0.0105,-0.644475 0.27293,-0.834685 l 3.53533,-2.547319 h -4.36916 c -0.32557,0 -0.61354,-0.208112 -0.71504,-0.515432 l -1.34962,-4.121212 -1.34962,4.121212 c -0.1,0.30732 -0.38947,0.515432 -0.71503,0.515432 h -4.36916 l 3.53532,2.547319 c 0.26391,0.19021 0.37444,0.52662 0.27294,0.834685 l -1.35113,4.121212 3.53458,-2.547319 c 0.13233,-0.09548 0.28797,-0.142471 0.4421,-0.142471 m 5.40675,5.389277 c -0.15413,0 -0.30977,-0.04774 -0.44135,-0.14247 l -4.9654,-3.578928 -4.9654,3.578928 c -0.26391,0.190209 -0.61954,0.190209 -0.88345,0 -0.26316,-0.19021 -0.37293,-0.52662 -0.27369,-0.83394 l 1.89774,-5.790583 -4.9654,-3.578181 c -0.2624,-0.19021 -0.37293,-0.52662 -0.27293,-0.83394 0.10151,-0.307319 0.38947,-0.515431 0.71504,-0.515431 h 6.13682 l 1.89623,-5.789837 C 410.88605,10.208112 411.17327,10 411.49958,10 c 0.32631,0 0.61504,0.208112 0.71504,0.515431 l 1.89623,5.789837 h 6.13682 c 0.32557,0 0.61504,0.208112 0.71504,0.515431 0.1015,0.30732 -0.009,0.64373 -0.27293,0.83394 l -4.9654,3.578181 1.89774,5.790583 c 0.10075,0.30732 -0.009,0.64373 -0.27369,0.83394 -0.13082,0.09473 -0.28646,0.14247 -0.4421,0.14247"
           style="fill:#6690b3;fill-opacity:1;fill-rule:evenodd;stroke:none;stroke-width:0.15462068;stroke-miterlimit:4;stroke-dasharray:none;stroke-opacity:1;paint-order:stroke fill markers" />
      </g>
    </g>
  </g>
  <g
     inkscape:groupmode="layer"
     id="layer1"
     inkscape:label="Layer 1"
     style="display:inline">
    <g
       style="fill-rule:evenodd;stroke:none;stroke-width:1"
       transform="translate(-677.92373,-1049)"
       id="6_xizal_video_single">
      <g
         transform="translate(276,1039)"
         id="Group-2">
        <path
           inkscape:connector-curvature="0"
           id="icon_favorite"
           d="m 411.49958,22.610536 c 0.15564,0 0.30977,0.04699 0.4421,0.142471 l 3.53458,2.547319 -1.35112,-4.121212 c -0.1,-0.308065 0.0105,-0.644475 0.27293,-0.834685 l 3.53533,-2.547319 h -4.36916 c -0.32557,0 -0.61354,-0.208112 -0.71504,-0.515432 l -1.34962,-4.121212 -1.34962,4.121212 c -0.1,0.30732 -0.38947,0.515432 -0.71503,0.515432 h -4.36916 l 3.53532,2.547319 c 0.26391,0.19021 0.37444,0.52662 0.27294,0.834685 l -1.35113,4.121212 3.53458,-2.547319 c 0.13233,-0.09548 0.28797,-0.142471 0.4421,-0.142471 m 5.40675,5.389277 c -0.15413,0 -0.30977,-0.04774 -0.44135,-0.14247 l -4.9654,-3.578928 -4.9654,3.578928 c -0.26391,0.190209 -0.61954,0.190209 -0.88345,0 -0.26316,-0.19021 -0.37293,-0.52662 -0.27369,-0.83394 l 1.89774,-5.790583 -4.9654,-3.578181 c -0.2624,-0.19021 -0.37293,-0.52662 -0.27293,-0.83394 0.10151,-0.307319 0.38947,-0.515431 0.71504,-0.515431 h 6.13682 l 1.89623,-5.789837 C 410.88605,10.208112 411.17327,10 411.49958,10 c 0.32631,0 0.61504,0.208112 0.71504,0.515431 l 1.89623,5.789837 h 6.13682 c 0.32557,0 0.61504,0.208112 0.71504,0.515431 0.1015,0.30732 -0.009,0.64373 -0.27293,0.83394 l -4.9654,3.578181 1.89774,5.790583 c 0.10075,0.30732 -0.009,0.64373 -0.27369,0.83394 -0.13082,0.09473 -0.28646,0.14247 -0.4421,0.14247" />
      </g>
    </g>
  </g>
</svg>
