<svg xmlns="http://www.w3.org/2000/svg" width="18" height="19" viewBox="0 0 18 19">
    <g fill="none" fill-rule="evenodd" stroke="#00467f" stroke-linejoin="round" stroke-width="1.5">
        <path d="M7.893 16.226l-4.425 1.29L.861 8.585l4.425-1.291 2.607 8.933zM16.346 9.505c.092.211.133.436.119.653-.025.48-.295.913-.712 1.16.019.107.024.203.02.33a1.464 1.464 0 0 1-.976 1.284c-.016.137-.047.27-.092.396l-.1.187c-.231.315-.717.463-1.33.463a4.04 4.04 0 0 1-.504-.034c-.368-.048-.788-.087-1.927-.182l-1.157-.1a12.51 12.51 0 0 0-1.102-.055c-.094 0-.17-.002-.306-.006a5.63 5.63 0 0 0-.269-.005c-.054 0-.101.003-.146.008l-.617.06-1.582-5.356.353-.317C7.092 7.03 8.454 5.41 8.95 4.498a.042.042 0 0 0 .004-.009c.242-.784.293-1.726.229-2.584l-.046-.612.59-.166c.15-.042.33-.073.483-.084l.295-.022.23.186c.518.419.814 1.511.703 2.872a7.683 7.683 0 0 1-.065.52l-.001.008-.028.192c-.01.071-.02.137-.025.182a9.41 9.41 0 0 0-.034.75.321.321 0 0 0 .106.236c.1.105.204.17.537.27.6.181 1.554.29 2.939.29l.227-.001.1-.002c.947 0 1.716.77 1.716 1.718 0 .481-.204.933-.564 1.263z"/>
    </g>
</svg>
