<?xml version="1.0" encoding="UTF-8"?><!DOCTYPE svg PUBLIC "-//W3C//DTD SVG 1.1//EN" "http://www.w3.org/Graphics/SVG/1.1/DTD/svg11.dtd"><svg xmlns="http://www.w3.org/2000/svg" xmlns:xlink="http://www.w3.org/1999/xlink"><defs><path id="18-a" d="M0 0h50.074v50H0z"/><path id="check-blue-b" d="M6 260.487L9.843 266 22 250"/><filter id="check-blue-a" width="153.7%" height="162.5%" x="-26.8%" y="-21.9%" filterUnits="objectBoundingBox"><feMorphology in="SourceAlpha" operator="dilate" radius="2" result="shadowSpreadOuter1"/><feOffset dy="3" in="shadowSpreadOuter1" result="shadowOffsetOuter1"/><feMorphology in="SourceAlpha" radius="2" result="shadowInner"/><feOffset dy="3" in="shadowInner" result="shadowInner"/><feComposite in="shadowOffsetOuter1" in2="shadowInner" operator="out" result="shadowOffsetOuter1"/><feColorMatrix in="shadowOffsetOuter1" values="0 0 0 0 1 0 0 0 0 1 0 0 0 0 1 0 0 0 1 0"/></filter><mask id="circle-main-a"><ellipse cx="180" cy="180" rx="180" ry="180" fill="#fff" stroke="#000" stroke-width="2"/></mask><clipPath id="circle-main-b"><ellipse cx="180" cy="180" rx="180" ry="180"/></clipPath><path id="icon-print-a" d="M0 0h19.97v18H0z"/><path id="icon-search-a" d="M0 17.424V0h17.135v17.424z"/></defs><symbol id="18" viewBox="0 0 51 50"><title>69C8E088-4B04-48DC-A81C-F64C4F7B65C8</title><g fill="none" fill-rule="evenodd"><path d="M27.385 23.22c2.084 0 2.917-.835 2.917-3.297 0-2.537-.833-3.296-2.917-3.296-2.083 0-2.916.76-2.916 3.296 0 2.462.833 3.296 2.916 3.296M27.385 26.742c-2.424 0-3.295 1.098-3.295 3.484 0 2.387.871 3.333 3.295 3.333s3.296-.946 3.296-3.333c0-2.386-.872-3.484-3.296-3.484" fill="#FFF"/><path d="M27.385 37.159c-5.72-.115-7.196-2.197-7.196-6.402 0-2.84.19-5 2.726-5.985-2.12-1.552-2.159-3.143-2.159-4.431v-1.288c.23-4.281 1.667-5.91 6.63-5.91 4.961 0 6.4 1.629 6.627 5.91v1.288c0 1.288-.037 2.879-2.158 4.43 2.538.987 2.727 3.146 2.727 5.986 0 4.205-1.477 6.287-7.197 6.402zm9.318-32.765c-.872-.872-1.969-1.136-3.219-1.136H16.59c-1.25 0-2.348.264-3.22 1.136l-8.597 8.712c-1.023 1.023-1.478 2.235-1.478 3.636v16.704c-.039 1.4.417 2.424 1.402 3.409l8.446 8.447c.985.984 2.084 1.439 3.447 1.439h16.894c1.363 0 2.462-.455 3.447-1.44l8.446-8.446c.985-.947 1.402-2.008 1.402-3.41v-5.757c-.039-.492-.303-.757-.796-.757h-2.537v1.78c0 1.326-.19 2.008-1.327 2.008h-1.136c-1.136 0-1.326-.682-1.326-2.007V26.93h-1.78c-1.325 0-2.008-.19-2.008-1.325v-1.213c0-1.135.683-1.325 2.008-1.325h1.78v-1.781c0-1.325.19-2.007 1.326-2.007h1.136c1.137 0 1.327.682 1.327 2.007v1.78h2.537c.53 0 .796-.303.796-.87v-5.455c0-1.401-.494-2.613-1.478-3.636l-8.598-8.712z" fill="#FFF"/><path d="M15.384 13.56h-3.447c-1.325 0-2.007.228-2.007 1.326v1.25c0 1.1.682 1.325 2.007 1.325h.796c.492 0 .718.265.718 1.023v16.363c0 1.326.23 2.008 1.328 2.008h1.287c1.098 0 1.326-.682 1.326-2.008v-19.96c0-1.099-.683-1.327-2.008-1.327" fill="#0277BD"/><g><mask id="18-b" fill="#fff"><use xlink:href="#18-a"/></mask><path d="M46.779 22.197c0 .567-.266.87-.796.87h-2.537v-1.78c0-1.325-.19-2.007-1.326-2.007h-1.137c-1.136 0-1.325.682-1.325 2.007v1.78h-1.78c-1.326 0-2.008.19-2.008 1.326v1.213c0 1.136.682 1.325 2.008 1.325h1.78v1.78c0 1.326.189 2.007 1.325 2.007h1.137c1.137 0 1.326-.681 1.326-2.006V26.93h2.537c.493 0 .758.265.796.757v5.758c0 1.4-.417 2.462-1.401 3.409L36.93 45.3c-.985.985-2.084 1.44-3.447 1.44H16.59c-1.364 0-2.462-.455-3.448-1.44l-8.446-8.446c-.984-.985-1.44-2.008-1.401-3.41V16.743c0-1.401.455-2.613 1.477-3.636l8.598-8.712c.872-.872 1.97-1.136 3.22-1.136h16.893c1.25 0 2.348.264 3.22 1.136l8.597 8.712c.985 1.023 1.478 2.235 1.478 3.636v5.455zm-7.766-20C37.537.759 35.68 0 33.446 0H16.629c-2.236 0-4.13.759-5.57 2.197l-8.9 8.863C.758 12.463 0 14.318 0 16.364v17.082c0 2.348.795 4.166 2.385 5.72l8.448 8.446c1.666 1.667 3.52 2.424 5.908 2.387h16.59c2.31 0 4.205-.683 5.909-2.387l8.447-8.446c1.553-1.554 2.386-3.41 2.386-5.72V16.364c0-2.046-.757-3.901-2.158-5.304l-8.903-8.863z" fill="#0277BD" mask="url(#18-b)"/></g><path d="M27.385 33.56c-2.424 0-3.295-.947-3.295-3.334s.871-3.484 3.295-3.484 3.296 1.097 3.296 3.484-.872 3.333-3.296 3.333m0-16.932c2.084 0 2.917.76 2.917 3.296 0 2.462-.833 3.296-2.917 3.296-2.083 0-2.916-.834-2.916-3.296 0-2.537.833-3.296 2.916-3.296m4.47 8.145c2.121-1.553 2.158-3.144 2.158-4.432v-1.288c-.227-4.28-1.666-5.909-6.628-5.909s-6.4 1.63-6.629 5.91v1.287c0 1.288.038 2.88 2.16 4.432-2.538.985-2.727 3.144-2.727 5.984 0 4.205 1.476 6.287 7.196 6.403 5.72-.116 7.197-2.198 7.197-6.403 0-2.84-.189-4.999-2.727-5.984" fill="#0277BD"/></g></symbol><symbol id="arrow" viewBox="0 0 8 12"><path fill="none" stroke="#EAEAEA" stroke-width="2" d="M1 1l5 4.82L1 11"/></symbol><symbol id="check-blue" viewBox="0 0 20 23"><g fill="none" fill-rule="evenodd" stroke-linecap="round" stroke-linejoin="round" transform="translate(-4 -248)"><use fill="#000" filter="url(#check-blue-a)" xlink:href="#check-blue-b"/><use stroke="#00ABE0" stroke-width="4" xlink:href="#check-blue-b"/></g></symbol><symbol id="check-white" viewBox="0 0 26 26"><title>D5B6DF8D-3E7F-482D-AE85-2480950C7EA4</title><path d="M2 16.419L7.284 24 24 2" stroke="#FFF" stroke-width="4" fill="none" fill-rule="evenodd" stroke-linecap="round" stroke-linejoin="round"/></symbol><symbol id="circle-main"><ellipse mask="url(#circle-main-a)" cx="180" cy="180" rx="180" ry="180" fill="none" pointer-events="visiblePainted"/><ellipse clip-path="url(#circle-main-b)" cx="180" cy="180" rx="180" ry="180" fill="none" stroke="rgba(94,138,175,.2)" stroke-width="2" pointer-events="visiblePainted"/></symbol><symbol id="comment" viewBox="0 0 20 20"><g fill-rule="evenodd"><path fill-rule="nonzero" d="M2.929 2.931A9.938 9.938 0 0 1 10 0a9.938 9.938 0 0 1 7.072 2.931c3.645 3.644 3.909 9.464.662 13.409.448.917.976 1.529 1.575 1.822.365.18.57.573.511.975a.929.929 0 0 1-.779.783c-.222.034-.46.055-.708.055-1.228 0-2.518-.423-3.595-1.164A10.005 10.005 0 0 1 10.001 20a9.934 9.934 0 0 1-7.072-2.927A9.931 9.931 0 0 1 0 10.004a9.941 9.941 0 0 1 2.929-7.073zm.8 13.338A8.816 8.816 0 0 0 10 18.865a8.871 8.871 0 0 0 4.491-1.218.585.585 0 0 1 .285-.08.59.59 0 0 1 .348.117c1.282.993 2.572 1.14 3.138 1.152-.675-.503-1.24-1.282-1.714-2.366a.569.569 0 0 1 .097-.603c3.1-3.501 2.936-8.836-.373-12.144A8.816 8.816 0 0 0 10 1.126a8.816 8.816 0 0 0-6.272 2.597c-3.46 3.463-3.46 9.091 0 12.546z"/><path d="M6.476 6h7.048c.265 0 .476.222.476.5s-.211.5-.476.5H6.476A.486.486 0 0 1 6 6.5c0-.278.215-.5.476-.5zm0 3h7.048c.265 0 .476.222.476.5s-.211.5-.476.5H6.476A.486.486 0 0 1 6 9.5c0-.278.215-.5.476-.5zm0 3h7.048c.265 0 .476.222.476.5s-.211.5-.476.5H6.476A.486.486 0 0 1 6 12.5c0-.278.215-.5.476-.5z"/></g></symbol><symbol id="i-close" viewBox="0 0 28 28"><path fill="none" stroke="#979797" stroke-width="2" d="M14 14L1 1l13 13L27 1 14 14zm0 0L1 27l13-13 13 13-13-13z"/></symbol><symbol id="icon-close-x" viewBox="0 0 17 17"><title>DDEA024B-8557-4321-8C12-CC804B29C1A7</title><g fill-rule="nonzero" stroke="#00467F" stroke-width="2" fill="none" stroke-linecap="round" stroke-linejoin="round"><path d="M1 1.071l7.071 7.071 7.071-7.07"/><path d="M15.142 15.071L8.072 8 1 15.071"/></g></symbol><symbol id="icon-close" viewBox="0 0 35 35"><path fill-rule="evenodd" d="M27.901 27.893A14.62 14.62 0 0 1 17.5 32.2c-3.927 0-7.62-1.528-10.396-4.304A14.605 14.605 0 0 1 2.8 17.5c0-3.928 1.53-7.62 4.306-10.396A14.612 14.612 0 0 1 17.503 2.8 14.61 14.61 0 0 1 27.9 7.104c5.733 5.732 5.733 15.057.001 20.79m1.981-22.77A17.393 17.393 0 0 0 17.504 0 17.384 17.384 0 0 0 5.128 5.124 17.379 17.379 0 0 0 0 17.5a17.372 17.372 0 0 0 5.125 12.376A17.384 17.384 0 0 0 17.501 35c4.677 0 9.074-1.82 12.383-5.127 6.822-6.823 6.821-17.925-.002-24.749m-9.308 7.21L17.5 15.408l-3.074-3.074a1.478 1.478 0 0 0-2.092 0 1.478 1.478 0 0 0 0 2.093l3.074 3.073-3.074 3.074A1.478 1.478 0 0 0 13.38 23.1c.379 0 .756-.145 1.046-.434l3.074-3.073 3.074 3.073a1.476 1.476 0 0 0 2.092 0 1.478 1.478 0 0 0 0-2.092L19.592 17.5l3.074-3.073a1.478 1.478 0 0 0 0-2.093 1.478 1.478 0 0 0-2.092 0z"/></symbol><symbol id="icon-comments" viewBox="0 0 19 17"><g fill="none" fill-rule="evenodd" stroke="#00467f" stroke-linejoin="round"><path stroke-width="1.5" d="M1.777 12.47a.9.9 0 0 1-.887-.911V1.816a.9.9 0 0 1 .887-.912h15.447a.9.9 0 0 1 .886.912v9.743a.9.9 0 0 1-.886.911H8.607l-3.964 3.619V12.47H1.777z"/><path stroke-linecap="round" d="M4.75 4.857h9.5M4.75 8.5h9.5"/></g></symbol><symbol id="icon-drop" viewBox="0 0 10 5"><path fill-rule="evenodd" d="M0 0l5.025 5L10 0H8.56L5.026 3.604h-.05L1.44 0z"/></symbol><symbol id="icon-dropdown" viewBox="0 0 18 10"><title>54E23CAB-0F92-4F32-83D7-7D8BC0883BC2</title><path d="M1.929 1L9 8.071 16.071 1" fill-rule="nonzero" stroke="#6690B3" stroke-width="2" fill="none" stroke-linecap="round" stroke-linejoin="round"/></symbol><symbol id="icon-eye" viewBox="0 0 20 12"><g fill="none" fill-rule="evenodd" stroke="#00467f" stroke-linejoin="round" stroke-width="1.5"><path d="M18.75 5.75s-4.029 5-9 5-9-5-9-5 4.029-5 9-5 9 5 9 5z"/><path d="M6.75 5.75a3 3 0 1 1 6 0 3 3 0 0 1-6 0z"/></g></symbol><symbol id="icon-favorite-hover" viewBox="0 0 19 18"><path stroke="#F5A623" d="M14.757 17.452a.257.257 0 0 0 .3 0 .241.241 0 0 0 .09-.273l-2.012-6.138.297-.214 4.965-3.578a.242.242 0 0 0 .09-.274.25.25 0 0 0-.24-.17h-6.499l-.112-.344L9.739.67A.25.25 0 0 0 9.5.5c-.11 0-.206.07-.24.171L7.252 6.805H.75c-.11 0-.206.07-.24.17-.032.1.004.211.09.274l5.263 3.792-.114.348-1.897 5.788a.245.245 0 0 0 .09.275c.09.064.21.064.299 0l5.258-3.79 5.257 3.79z" fill="none" fill-rule="evenodd"/></symbol><symbol id="icon-favorite" viewBox="0 0 19 18"><path fill="none" stroke="#F5A623" d="M14.757 17.452a.257.257 0 0 0 .3 0 .241.241 0 0 0 .09-.273l-2.012-6.138.297-.214 4.965-3.578a.242.242 0 0 0 .09-.274.25.25 0 0 0-.24-.17h-6.499l-.112-.344L9.739.67A.25.25 0 0 0 9.5.5c-.11 0-.206.07-.24.171L7.252 6.805H.75c-.11 0-.206.07-.24.17-.032.1.004.211.09.274l5.263 3.792-.114.348-1.897 5.788a.245.245 0 0 0 .09.275c.09.064.21.064.299 0l5.258-3.79 5.257 3.79z"/></symbol><symbol id="icon-fb" viewBox="0 0 9 15"><path fill="#395693" fill-rule="evenodd" d="M5.327 15V8.158h2.42l.362-2.667H5.327V3.79c0-.772.226-1.298 1.392-1.298l1.488-.001V.105A20.965 20.965 0 0 0 6.039 0C3.894 0 2.426 1.243 2.426 3.525V5.49H0v2.667h2.426V15h2.9z"/></symbol><symbol id="icon-like-full-green" viewBox="0 0 18 19"><path d="M7.893 16.226l-4.425 1.29L.861 8.585l4.425-1.291 2.607 8.933zm8.453-6.721c.092.211.133.436.119.653a1.44 1.44 0 0 1-.712 1.16c.019.107.024.203.02.33a1.464 1.464 0 0 1-.976 1.284c-.016.137-.047.27-.092.396l-.1.187c-.231.315-.717.463-1.33.463a4.04 4.04 0 0 1-.504-.034c-.368-.048-.788-.087-1.927-.182l-1.157-.1a12.51 12.51 0 0 0-1.102-.055c-.094 0-.17-.002-.306-.006a5.63 5.63 0 0 0-.269-.005c-.054 0-.101.003-.146.008l-.617.06-1.582-5.356.353-.317C7.092 7.03 8.454 5.41 8.95 4.498a.042.042 0 0 0 .004-.009c.242-.784.293-1.726.229-2.584l-.046-.612.59-.166c.15-.042.33-.073.483-.084l.295-.022.23.186c.518.419.814 1.511.703 2.872a7.683 7.683 0 0 1-.065.52l-.001.008-.028.192c-.01.071-.02.137-.025.182a9.41 9.41 0 0 0-.034.75.321.321 0 0 0 .106.236c.1.105.204.17.537.27.6.181 1.554.29 2.939.29l.227-.001.1-.002c.947 0 1.716.77 1.716 1.718 0 .481-.204.933-.564 1.263z" fill="#00467f" fill-rule="evenodd" stroke="#00467f" stroke-linejoin="round" stroke-width="1.5"/></symbol><symbol id="icon-like-green" viewBox="0 0 18 19"><path d="M7.893 16.226l-4.425 1.29L.861 8.585l4.425-1.291 2.607 8.933zm8.453-6.721c.092.211.133.436.119.653a1.44 1.44 0 0 1-.712 1.16c.019.107.024.203.02.33a1.464 1.464 0 0 1-.976 1.284c-.016.137-.047.27-.092.396l-.1.187c-.231.315-.717.463-1.33.463a4.04 4.04 0 0 1-.504-.034c-.368-.048-.788-.087-1.927-.182l-1.157-.1a12.51 12.51 0 0 0-1.102-.055c-.094 0-.17-.002-.306-.006a5.63 5.63 0 0 0-.269-.005c-.054 0-.101.003-.146.008l-.617.06-1.582-5.356.353-.317C7.092 7.03 8.454 5.41 8.95 4.498a.042.042 0 0 0 .004-.009c.242-.784.293-1.726.229-2.584l-.046-.612.59-.166c.15-.042.33-.073.483-.084l.295-.022.23.186c.518.419.814 1.511.703 2.872a7.683 7.683 0 0 1-.065.52l-.001.008-.028.192c-.01.071-.02.137-.025.182a9.41 9.41 0 0 0-.034.75.321.321 0 0 0 .106.236c.1.105.204.17.537.27.6.181 1.554.29 2.939.29l.227-.001.1-.002c.947 0 1.716.77 1.716 1.718 0 .481-.204.933-.564 1.263z" fill="none" fill-rule="evenodd" stroke="#00467f" stroke-linejoin="round" stroke-width="1.5"/></symbol><symbol id="icon-like-white" viewBox="0 0 18 19"><path d="M7.893 16.226l-4.425 1.29L.861 8.585l4.425-1.291 2.607 8.933zm8.453-6.721c.092.211.133.436.119.653a1.44 1.44 0 0 1-.712 1.16c.019.107.024.203.02.33a1.464 1.464 0 0 1-.976 1.284c-.016.137-.047.27-.092.396l-.1.187c-.231.315-.717.463-1.33.463a4.04 4.04 0 0 1-.504-.034c-.368-.048-.788-.087-1.927-.182l-1.157-.1a12.51 12.51 0 0 0-1.102-.055c-.094 0-.17-.002-.306-.006a5.63 5.63 0 0 0-.269-.005c-.054 0-.101.003-.146.008l-.617.06-1.582-5.356.353-.317C7.092 7.03 8.454 5.41 8.95 4.498a.042.042 0 0 0 .004-.009c.242-.784.293-1.726.229-2.584l-.046-.612.59-.166c.15-.042.33-.073.483-.084l.295-.022.23.186c.518.419.814 1.511.703 2.872a7.683 7.683 0 0 1-.065.52l-.001.008-.028.192c-.01.071-.02.137-.025.182a9.41 9.41 0 0 0-.034.75.321.321 0 0 0 .106.236c.1.105.204.17.537.27.6.181 1.554.29 2.939.29l.227-.001.1-.002c.947 0 1.716.77 1.716 1.718 0 .481-.204.933-.564 1.263z" fill="none" fill-rule="evenodd" stroke="#fff" stroke-linejoin="round" stroke-width="1.5"/></symbol><symbol id="icon-like" viewBox="0 0 18 19"><path d="M7.893 16.226l-4.425 1.29L.861 8.585l4.425-1.291 2.607 8.933zm8.453-6.721c.092.211.133.436.119.653a1.44 1.44 0 0 1-.712 1.16c.019.107.024.203.02.33a1.464 1.464 0 0 1-.976 1.284c-.016.137-.047.27-.092.396l-.1.187c-.231.315-.717.463-1.33.463a4.04 4.04 0 0 1-.504-.034c-.368-.048-.788-.087-1.927-.182l-1.157-.1a12.51 12.51 0 0 0-1.102-.055c-.094 0-.17-.002-.306-.006a5.63 5.63 0 0 0-.269-.005c-.054 0-.101.003-.146.008l-.617.06-1.582-5.356.353-.317C7.092 7.03 8.454 5.41 8.95 4.498a.042.042 0 0 0 .004-.009c.242-.784.293-1.726.229-2.584l-.046-.612.59-.166c.15-.042.33-.073.483-.084l.295-.022.23.186c.518.419.814 1.511.703 2.872a7.683 7.683 0 0 1-.065.52l-.001.008-.028.192c-.01.071-.02.137-.025.182a9.41 9.41 0 0 0-.034.75.321.321 0 0 0 .106.236c.1.105.204.17.537.27.6.181 1.554.29 2.939.29l.227-.001.1-.002c.947 0 1.716.77 1.716 1.718 0 .481-.204.933-.564 1.263z" fill="none" fill-rule="evenodd" stroke="#787886" stroke-linejoin="round" stroke-width="1.5" opacity=".5"/></symbol><symbol id="icon-ok" viewBox="0 0 13 18"><path fill="#F58221" fill-rule="evenodd" d="M12.693 9.667c-.306-.517-1.154-.946-2.281-.2-1.523 1.008-3.97 1.008-3.97 1.008s-2.445 0-3.968-1.008c-1.127-.746-1.975-.317-2.28.2-.535.9.068 1.336 1.43 2.07 1.161.627 2.758.861 3.79.949l-.861.723a43154.92 43154.92 0 0 0-3.195 2.685c-.486.408-.486 1.069 0 1.477l.146.123c.486.408 1.273.408 1.758 0l3.195-2.684 3.195 2.684c.486.408 1.273.408 1.758 0l.147-.123c.485-.408.485-1.07 0-1.477l-4.059-3.41c1.032-.09 2.612-.325 3.765-.947 1.36-.734 1.963-1.17 1.43-2.07zm-6.25-7.353c1.473 0 2.667 1.004 2.667 2.242 0 1.237-1.194 2.24-2.667 2.24-1.473 0-2.667-1.003-2.667-2.24 0-1.238 1.194-2.242 2.667-2.242zm0 6.797c2.994 0 5.422-2.04 5.422-4.555C11.865 2.04 9.437 0 6.443 0 3.448 0 1.02 2.04 1.02 4.556S3.448 9.11 6.443 9.11z"/></symbol><symbol id="icon-play-full" viewBox="0 0 512 512"><path d="M152.443 136.417L359.557 255.99 152.443 375.583z"/></symbol><symbol id="icon-play-smooth" viewBox="0 0 114 114"><title>6E669C22-4C5E-4F49-97CD-593EDA9E6492</title><g fill="none" fill-rule="evenodd"><path d="M0 57C0 25.519 25.52 0 57 0s57 25.519 57 57-25.52 57-57 57S0 88.481 0 57" fill="#FDBA31"/><path d="M78.827 52.62l-27.05-20.5C48.17 29.387 43 31.967 43 36.5v41c0 4.533 5.17 7.113 8.777 4.38l27.05-20.5c2.897-2.196 2.897-6.564 0-8.76" fill="#FFF"/></g></symbol><symbol id="icon-play" viewBox="0 0 14 15"><title>84508877-A58B-41AF-9634-A9F4736FA2A1</title><path d="M1.485 1.408c.002.022-.016.083-.016.191v11.804c0 .096.014.155.026.187a.64.64 0 0 0 .184-.072l10.677-5.903a.539.539 0 0 0 .165-.123c-.02-.009-.067-.055-.164-.107L1.677 1.482a.581.581 0 0 0-.192-.074M1.462 15C.602 15 0 14.344 0 13.403V1.6C0 .657.602 0 1.462 0c.314 0 .633.09.95.264l10.679 5.903c.578.318.909.804.909 1.332 0 .53-.331 1.015-.91 1.334L2.413 14.736a1.96 1.96 0 0 1-.95.264" fill="#6690B3" fill-rule="evenodd"/></symbol><symbol id="icon-print" viewBox="0 0 20 18"><g fill="none" fill-rule="evenodd" opacity=".5"><mask id="icon-print-b" fill="#fff"><use xlink:href="#icon-print-a"/></mask><path fill="#464645" d="M18.802 12.545c0 .273-.259.495-.577.495h-2.01V9H3.753v4.04h-2.01c-.318 0-.576-.222-.576-.495V5.49c0-.273.258-.495.576-.495h16.482c.318 0 .577.222.577.495v7.055zm-3.753 4.25c0 .113-.107.205-.238.205H5.157c-.132 0-.238-.092-.238-.204V9.979h10.13v6.817zM4.963 1H15.05v3.01H4.963V1zm11.253 3.008V1.037c0-.572-.543-1.037-1.21-1.037H4.963c-.668 0-1.21.465-1.21 1.037v2.97h-2.01C.782 4.008 0 4.188 0 5.013v7.533c0 .824.782 1.495 1.743 1.495h2.01v2.756c0 .664.63 1.204 1.404 1.204h9.654c.775 0 1.405-.54 1.405-1.204V14.04h2.009c.961 0 1.744-.671 1.744-1.495V5.012c0-.824-.783-1.004-1.744-1.004h-2.01z" mask="url(#icon-print-b)"/><path fill="#464645" d="M6.984 12h6.001c.322 0 .584-.224.584-.5s-.262-.5-.584-.5H6.984c-.322 0-.583.224-.583.5s.261.5.583.5m0 2h6.001c.322 0 .584-.224.584-.5s-.262-.5-.584-.5H6.984c-.322 0-.583.224-.583.5s.261.5.583.5m6.001 2c.322 0 .584-.224.584-.5s-.262-.5-.584-.5H6.984c-.322 0-.583.224-.583.5s.261.5.583.5h6.001zM2.072 6.46c0 .333.537.476.923.476.388 0 1-.143 1-.475 0-.332-.612-.476-1-.476-.386 0-.923.144-.923.476z"/></g></symbol><symbol id="icon-search" viewBox="0 0 18 18"><g fill="none" fill-rule="evenodd"><mask id="icon-search-b" fill="#fff"><use xlink:href="#icon-search-a"/></mask><path fill="#00467f" d="M7.475 13.452A5.983 5.983 0 0 1 1.5 7.48 5.986 5.986 0 0 1 7.477 1.5a5.986 5.986 0 0 1 5.977 5.978 5.984 5.984 0 0 1-5.979 5.975m9.44 2.692l-3.787-3.787a7.438 7.438 0 0 0 1.826-4.88C14.953 3.354 11.598 0 7.477 0 3.355 0 0 3.356 0 7.48c0 4.12 3.355 7.471 7.475 7.471a7.435 7.435 0 0 0 4.562-1.565l3.818 3.818a.748.748 0 0 0 1.06 0 .75.75 0 0 0 0-1.06M2.522 7.474h.75A4.21 4.21 0 0 1 7.477 3.27v-.75a4.96 4.96 0 0 0-4.955 4.955" mask="url(#icon-search-b)"/></g></symbol><symbol id="icon-vk" viewBox="0 0 20 11"><path fill="#4E7DB2" fill-rule="evenodd" d="M19.487.754c.087-.41-.105-.64-.558-.64h-2.283c-.523 0-.715.214-.872.525 0 0-1.234 2.474-2.736 4.033-.482.504-.728.656-.994.656-.214 0-.313-.168-.313-.623V.72c0-.557-.07-.721-.558-.721h-3.66c-.28 0-.454.153-.454.36 0 .525.854.644.854 2.066V5.36c0 .59-.035.82-.33.82-.785 0-2.65-2.542-3.696-5.427C3.677.164 3.451 0 2.859 0H.575C.245 0 0 .213 0 .524c0 .574.715 3.23 3.52 6.788C5.404 9.705 7.879 11 10.11 11c1.36 0 1.69-.213 1.69-.754V8.41c0-.46.192-.656.47-.656.315 0 .868.095 2.162 1.295C15.966 10.426 16.071 11 16.907 11h2.563c.261 0 .505-.115.505-.525 0-.54-.75-1.508-1.9-2.655-.47-.59-1.237-1.23-1.481-1.525-.349-.344-.244-.541 0-.902 0 0 2.631-3.491 2.893-4.639z"/></symbol><symbol id="infinity" viewBox="0 0 18 8"><path fill-rule="evenodd" d="M13.95 0c-1.08 0-2.1.417-2.831 1.142L9 3.002 8.996 3l-1.136.994.007.007-2.02 1.779a2.543 2.543 0 0 1-1.797.733C2.648 6.512 1.507 5.384 1.507 4s1.14-2.512 2.543-2.512c.679 0 1.316.26 1.83.767l.851.748 1.133-.994-.949-.833A4.05 4.05 0 0 0 4.05.004C1.815 0 0 1.794 0 4s1.815 4 4.05 4c1.08 0 2.096-.417 2.831-1.139L9 4.997l.004.004 1.132-.997L10.132 4l2.022-1.775a2.531 2.531 0 0 1 1.796-.737c1.402 0 2.543 1.128 2.543 2.512 0 1.384-1.14 2.512-2.543 2.512-.679 0-1.316-.26-1.83-.763L11.269 5l-1.133.997.949.834A4.044 4.044 0 0 0 13.946 8C16.185 8 18 6.206 18 4s-1.815-4-4.05-4z"/></symbol><symbol id="info" viewBox="0 0 40 42"><g fill="none" fill-rule="evenodd"><circle cx="20" cy="22" r="20" fill="#FFF" stroke="#00ABE0" stroke-width="2"/><text fill="#00ABE0" font-family="TrebuchetMS-Bold, Trebuchet MS" font-size="36" font-weight="bold"><tspan x="13.391" y="34">!</tspan></text></g></symbol><symbol id="logo" viewBox="0 0 220 55"><path d="M2.904 16.826c-.016-3.555 1.373-6.93 3.91-9.503a13.859 13.859 0 0 1 9.875-4.16l47.503-.216c7.635-.035 13.872 6.038 13.904 13.536a13.326 13.326 0 0 1-2.96 8.435 12.425 12.425 0 0 0 1.351-5.687c-.033-7.274-6.4-13.195-14.15-13.16l-26.282.102c-5.524 13.912.623 24.084.623 24.084l-19.87.105c-7.633.035-13.87-6.036-13.904-13.536m13.918 16.485l23.677-.11L68.124 52l-3.8-18.907a16.726 16.726 0 0 0 11.915-5.021c3.09-3.134 4.782-7.256 4.76-11.603C80.96 7.346 73.416-.043 64.18 0L16.675.217A16.726 16.726 0 0 0 4.76 5.237C1.67 8.373-.02 12.491 0 16.84c.04 9.123 7.584 16.512 16.82 16.47m112.326 17.051c.726 0 1.202-.622 1.202-1.368 0-.721-.452-1.335-1.202-1.335-.578-.011-1.147 0-1.725 0v2.703h1.725zm-3.394 3.627V46.2c1.137-.01 2.259 0 3.394 0 1.85 0 2.827 1.369 2.827 2.836 0 1.446-1.011 2.747-2.827 2.747h-1.69v2.204h-1.704zm-7.3-6.33v-1.446h5.88v1.446h-2.111v6.34h-1.645v-6.34h-2.125zm-3.113 6.34v-3.292h-3.04v3.291h-1.692v-7.785h1.692v2.971h3.04v-2.97h1.706v7.784h-1.706zm-6.64-6.328h-3.154v1.579h2.951v1.457h-2.95v1.78h3.245v1.511h-4.96v-7.785h4.868v1.458zM95 53.997v-7.785h1.702v6.274h2.86v-6.274h1.714v6.374h.952V55h-1.509v-1.003H95zm119.983-24.743c.057 1.146.795 1.869 2.009 1.869 1.261 0 1.953-.733 2.022-1.869a44.36 44.36 0 0 0-1.135-.1c-.092.513-.41.702-.897.702-.523 0-.795-.245-.852-.702l-1.147.1zm-1.168 10.188h-.512v-7.807h1.704v4.415l4.46-4.447H220v7.817h-1.692v-4.447l-4.493 4.469zm-4.327-.022h1.69v-7.787h-1.69v7.787zm-4.143-3.88h-1.53v2.411c.464 0 .942.012 1.418.012.873 0 1.385-.334 1.464-1.066.066-.702-.386-1.358-1.18-1.358h-.172zm-1.53-3.716v2.246h1.701c1.999 0 2.985 1.523 2.804 3.014-.16 1.259-1.136 2.336-2.804 2.336h-3.36v-7.785h1.658v.19zm-5.486 7.596v-3.293h-3.041v3.293h-1.69v-7.785h1.69v2.97h3.041v-2.97h1.702v7.785h-1.702zm-8.56 0v-3.293h-3.04v3.293h-1.691v-7.785h1.691v2.97h3.04v-2.97h1.704v7.785h-1.704zm-10.466-1.39c1.237 0 2.36-.802 2.36-2.502 0-1.658-1.111-2.48-2.349-2.48-1.249 0-2.36.833-2.36 2.48 0 1.7 1.078 2.502 2.349 2.502zm-.024 1.523c-2.12 0-4.04-1.401-4.04-4.025 0-2.626 1.964-4.016 4.075-4.016 2.078 0 4.041 1.402 4.041 4.016 0 2.37-1.67 4.025-4.076 4.025zm-11.907-.111h-.51v-7.807h1.7v4.415l4.463-4.447h.533v7.817h-1.69v-4.447l-4.496 4.469zm-9.34-.022v-7.785h1.699v6.274h2.86v-6.274h1.714v6.372h.952v2.414h-1.507v-1h-5.719zm-6.283-2.691h2.202l-1.1-2.57-1.102 2.57zm-.554 1.402l-.612 1.29h-1.773v-.224l3.657-7.63h.781l3.634 7.63v.223h-1.76l-.624-1.29h-3.303zm-4.136-6.519h.614v7.808h-1.702v-4.214l-1.999 2.446h-.214l-1.997-2.446v4.214h-1.702v-7.808h.622l3.19 3.704 3.188-3.704zm-11.316 4.17c.726 0 1.202-.622 1.202-1.367 0-.722-.455-1.334-1.202-1.334-.579-.011-1.145 0-1.726 0v2.701h1.726zm-3.394 3.627v-7.785c1.135-.012 2.258 0 3.394 0 1.849 0 2.825 1.369 2.825 2.836 0 1.446-1.01 2.747-2.825 2.747h-1.692v2.202h-1.702zm-5.745-1.379c1.238 0 2.359-.802 2.359-2.502 0-1.658-1.11-2.48-2.347-2.48-1.25 0-2.36.833-2.36 2.48 0 1.7 1.077 2.502 2.348 2.502zm-.023 1.523c-2.123 0-4.04-1.401-4.04-4.025 0-2.626 1.964-4.016 4.075-4.016 2.077 0 4.04 1.402 4.04 4.016 0 2.37-1.67 4.025-4.075 4.025zm-9.198-5.739v3.414c1.058-.042 2.113-.387 2.113-1.712 0-1.322-1.033-1.679-2.113-1.702zm-1.542 3.414v-3.414c-1.088.023-2.111.38-2.111 1.702 0 1.325 1.068 1.67 2.11 1.712zm-.012 1.414c-2.052-.056-3.801-1.001-3.801-3.126 0-2.124 1.749-3.08 3.79-3.148v-.756h1.59v.756c2.088.068 3.79.935 3.79 3.148 0 2.214-1.76 3.07-3.803 3.126v.8h-1.566v-.8zm-7.276.778v-3.293h-3.041v3.293h-1.69v-7.785h1.69v2.97h3.041v-2.97h1.702v7.785h-1.702zm-13.043.022H95v-7.807h1.702v4.415l4.46-4.447h.533v7.817h-1.692v-4.447l-4.493 4.469zm87.505-24.765c.057 1.146.795 1.868 2.009 1.868 1.26 0 1.953-.732 2.022-1.868-.33-.032-.797-.077-1.135-.1-.09.513-.41.702-.899.702-.521 0-.795-.245-.85-.702l-1.147.1zm-1.169 10.188h-.511v-7.807h1.704v4.415l4.46-4.45h.533v7.82h-1.692v-4.447l-4.494 4.469zm-8.82 0h-.51v-7.807h1.7v4.415l4.461-4.45h.533v7.82h-1.69v-4.447l-4.493 4.469zm-7.084-4.593c.488 0 1.055.012 1.371-.144.421-.222.579-.812.797-1.691.27-.968.964-1.724 2.711-1.369v1.136c-.635-.056-.976.133-1.145.722-.24.89-.511 1.591-1 2.07l2.428 3.602v.245h-1.916l-1.999-3.202c-.305.077-.895.077-1.247.077v3.125h-1.692v-7.785h1.692v3.214zm-6.996-3.293c1.601 0 3.303.847 3.667 2.77h-1.644c-.353-.878-1.069-1.268-2.023-1.268-1.405 0-2.347 1-2.347 2.48 0 1.336.919 2.448 2.337 2.448.988 0 1.794-.457 2.064-1.402h1.635c-.339 2.057-2.03 2.913-3.689 2.913-2.087 0-4.063-1.378-4.063-3.96 0-2.59 1.976-4.013 4.063-3.98zm-7.447 7.864V21.55h-3.041v3.293h-1.69v-7.785h1.69v2.97h3.041v-2.97h1.704v7.785H151.5zm-13.043.022h-.508v-7.807h1.7v4.415l4.46-4.45h.535v7.82h-1.692v-4.447l-4.495 4.469zm-9.341-.022v-7.785h1.701v6.272h2.86v-6.272h1.714v6.372h.953v2.414h-1.507v-1h-5.721zm-8.31.022h-.512v-7.807h1.702v4.415l4.46-4.45h.533v7.82h-1.69v-4.447l-4.494 4.469zm-7.12-2.459c-.034.346-.194.835-.534 1.057h2.985v-4.97h-2.033l-.419 3.913zm-2.588 1.024c.68-.011.817-.345.907-1.09l.624-5.282h5.176v6.372h.852v2.514h-1.52v-1.1h-4.71v1.1h-1.602V23.43h.273zm-1.49-4.916h-3.153v1.579h2.951v1.457h-2.95v1.78h3.245v1.513h-4.96v-7.785h4.868v1.456zm-7.605-1.479h.614v7.808h-1.704V20.63l-1.997 2.446H98.7l-1.997-2.446v4.214H95v-7.808h.624l3.189 3.704 3.189-3.704zM138.796.1c.057 1.145.795 1.868 2.01 1.868 1.258 0 1.95-.734 2.02-1.868a40.683 40.683 0 0 0-1.136-.1c-.09.51-.407.7-.895.7-.523 0-.795-.243-.854-.7l-1.145.1zm-1.167 10.187h-.511V2.481h1.702v4.415l4.46-4.45h.533v7.82h-1.69v-4.45l-4.494 4.471zm-4.328-.02h1.692V2.48h-1.692v7.785zm-4.143-3.884h-1.53v2.414c.463 0 .94.012 1.416.012.875 0 1.385-.334 1.463-1.068.07-.7-.385-1.358-1.178-1.358h-.171zm-1.53-3.715v2.248h1.701c1.997 0 2.983 1.523 2.803 3.014-.159 1.257-1.137 2.336-2.803 2.336h-3.36V2.481h1.658v.187zm-7.868 4.373v1.78h1.882c.579 0 .92-.336.955-.859.01-.31-.117-.6-.355-.767-.19-.133-.419-.154-.678-.154h-1.804zm0-3.125v1.768h1.554c.576 0 .94-.313.952-.835.012-.567-.364-.933-.952-.933h-1.554zm3.38 2.311c.737.301 1.135.935 1.135 1.735 0 1.37-.929 2.304-2.52 2.304h-3.687V2.491h3.37c1.452 0 2.496.844 2.496 2.302 0 .569-.295 1.135-.794 1.434zm-9.4.401c.727 0 1.203-.622 1.203-1.369 0-.723-.454-1.332-1.204-1.332-.578-.011-1.145 0-1.723 0v2.701h1.723zm-3.394 3.627V2.47c1.135-.012 2.26 0 3.393 0 1.85 0 2.828 1.367 2.828 2.834 0 1.446-1.01 2.749-2.828 2.749h-1.69v2.202h-1.703zm-1.917-6.318h-3.157v1.579h2.95v1.457h-2.95v1.78h3.248v1.513h-4.96V2.481h4.87v1.456zm-6.996-1.456v7.785h-1.701V3.993h-3.03v6.273H95V2.481h6.433z" fill-rule="evenodd"/></symbol><symbol id="main-circle1"><ellipse mask="url(#mask_5c3f2c21e1822c6a69834ede_viewer-09fb5799-d744-449f-aab1-4860b0b4d148)" cx="86.5" cy="86.5" rx="86.5" ry="86.5" fill="rgba(247,92,49,.09)" pointer-events="visiblePainted"/></symbol><symbol id="main-circle2"><ellipse mask="url(#mask_5c3f2c21e1822c6a69834ed2_viewer-cb8bb511-aa32-439d-b5f0-c725476a0edf)" cx="145" cy="145" rx="145" ry="145" fill="rgba(94,138,175,.09)" pointer-events="visiblePainted"/></symbol><symbol id="play-simple" viewBox="0 0 20 20"><path d="M10 1c4.963 0 9 4.037 9 9s-4.037 9-9 9-9-4.037-9-9 4.037-9 9-9zm0-1C4.478 0 0 4.477 0 10s4.478 10 10 10 10-4.477 10-10S15.522 0 10 0z"/><path d="M14.283 8.886L8.74 5.288C7.783 4.668 7 5.084 7 6.213v7.572c0 1.13.784 1.547 1.742.929l5.539-3.574c.958-.62.959-1.633.002-2.254zm-.739 1.499l-4.922 3.177c-.32.206-.58.067-.58-.31V6.746c0-.377.26-.515.579-.308l4.924 3.195c.32.207.319.545 0 .752z"/></symbol><symbol id="play" viewBox="0 0 100 100"><path d="M50 1C23.05 1 1 23.05 1 50s22.05 49 49 49 49-22.05 49-49S76.95 1 50 1z" opacity=".8"/><g fill="#FFF"><path d="M76 48.667l-36.667-25c-.5-.334-1.166-.334-1.666-.167-.667.333-1 .833-1 1.5v50c0 .667.333 1.167.833 1.5.333.167.5.167.833.167.334 0 .667-.167 1-.334l36.667-25c.5-.333.667-.833.667-1.333s-.334-1-.667-1.333zM40 71.833V28.167L72 50 40 71.833z"/><path d="M50 0C22.5 0 0 22.5 0 50s22.5 50 50 50 50-22.5 50-50S77.5 0 50 0zm0 96.667c-25.667 0-46.667-21-46.667-46.667S24.333 3.333 50 3.333s46.667 21 46.667 46.667-21 46.667-46.667 46.667z"/></g></symbol></svg>