<svg xmlns="http://www.w3.org/2000/svg" width="19" height="18" viewBox="0 0 19 18">
    <path fill="none" fill-rule="evenodd" stroke="#F5A623" d="M14.757 17.452a.257.257 0 0 0 .3 0 .241.241 0 0 0 .09-.273l-2.012-6.138.297-.214 4.965-3.578a.242.242 0 0 0 .09-.274.25.25 0 0 0-.24-.17h-6.499l-.112-.344L9.739.67A.25.25 0 0 0 9.5.5c-.11 0-.206.07-.24.171L7.252 6.805H.75c-.11 0-.206.07-.24.17-.032.1.004.211.09.274l5.263 3.792-.114.348-1.897 5.788a.245.245 0 0 0 .09.275c.09.064.21.064.299 0l5.258-3.79 5.257 3.79z" opacity=".5"/>
</svg>
