<svg xmlns="http://www.w3.org/2000/svg" width="18" height="8" viewBox="0 0 18 8">
    <path fill-rule="evenodd" d="M13.95 0c-1.08 0-2.1.417-2.831 1.142L9 3.002 8.996 3l-1.136.994.007.007-2.02 1.779a2.543 2.543 0 0 1-1.797.733C2.648 6.512 1.507 5.384 1.507 4c0-1.384 1.14-2.512 2.543-2.512.679 0 1.316.26 1.83.767l.851.748 1.133-.994-.949-.833A4.05 4.05 0 0 0 4.05.004C1.815 0 0 1.794 0 4s1.815 4 4.05 4c1.08 0 2.096-.417 2.831-1.139L9 4.997l.004.004 1.132-.997L10.132 4l2.022-1.775a2.531 2.531 0 0 1 1.796-.737c1.402 0 2.543 1.128 2.543 2.512 0 1.384-1.14 2.512-2.543 2.512-.679 0-1.316-.26-1.83-.763L11.269 5l-1.133.997.949.834A4.044 4.044 0 0 0 13.946 8C16.185 8 18 6.206 18 4s-1.815-4-4.05-4z"/>
</svg>
