<svg xmlns="http://www.w3.org/2000/svg" width="20" height="20" viewBox="0 0 20 20">
    <g fill-rule="nonzero">
        <path d="M10 1c4.963 0 9 4.037 9 9s-4.037 9-9 9-9-4.037-9-9 4.037-9 9-9zm0-1C4.478 0 0 4.477 0 10s4.478 10 10 10 10-4.477 10-10S15.522 0 10 0z"/>
        <path d="M14.283 8.886L8.74 5.288C7.783 4.668 7 5.084 7 6.213v7.572c0 1.13.784 1.547 1.742.929l5.539-3.574c.958-.62.959-1.633.002-2.254zm-.739 1.499l-4.922 3.177c-.32.206-.58.067-.58-.31V6.746c0-.377.26-.515.579-.308l4.924 3.195c.32.207.319.545 0 .752z"/>
    </g>
</svg>
